<svg height="4974" width="720" xmlns="http://www.w3.org/2000/svg">
<rect height="4974" fill="#555" width="720"></rect>
<text fill="#7f7" font-family="Courier New" font-size="12" xml:space="preserve">
<tspan x="10" y="26">53 megabytes installed</tspan>
<tspan x="10" y="42"></tspan>
<tspan x="10" y="58">node_modules</tspan>
<tspan x="10" y="74">└─┬ botkit@0.5.2 </tspan>
<tspan x="10" y="90">  ├─┬ async@2.3.0 </tspan>
<tspan x="10" y="106">  │ └── lodash@4.17.4 </tspan>
<tspan x="10" y="122">  ├─┬ back@1.0.1 </tspan>
<tspan x="10" y="138">  │ └── xtend@4.0.1 </tspan>
<tspan x="10" y="154">  ├─┬ body-parser@1.17.1 </tspan>
<tspan x="10" y="170">  │ ├── bytes@2.4.0 </tspan>
<tspan x="10" y="186">  │ ├── content-type@1.0.2 </tspan>
<tspan x="10" y="202">  │ ├─┬ debug@2.6.1 </tspan>
<tspan x="10" y="218">  │ │ └── ms@0.7.2 </tspan>
<tspan x="10" y="234">  │ ├── depd@1.1.0 </tspan>
<tspan x="10" y="250">  │ ├─┬ http-errors@1.6.1 </tspan>
<tspan x="10" y="266">  │ │ └── inherits@2.0.3 </tspan>
<tspan x="10" y="282">  │ ├── iconv-lite@0.4.15 </tspan>
<tspan x="10" y="298">  │ ├─┬ on-finished@2.3.0 </tspan>
<tspan x="10" y="314">  │ │ └── ee-first@1.1.1 </tspan>
<tspan x="10" y="330">  │ ├── qs@6.4.0 </tspan>
<tspan x="10" y="346">  │ ├─┬ raw-body@2.2.0 </tspan>
<tspan x="10" y="362">  │ │ └── unpipe@1.0.0 </tspan>
<tspan x="10" y="378">  │ └─┬ type-is@1.6.15 </tspan>
<tspan x="10" y="394">  │   └── media-typer@0.3.0 </tspan>
<tspan x="10" y="410">  ├─┬ botbuilder@3.7.0 </tspan>
<tspan x="10" y="426">  │ ├── async@1.5.2 </tspan>
<tspan x="10" y="442">  │ ├─┬ base64url@1.0.6 </tspan>
<tspan x="10" y="458">  │ │ ├─┬ concat-stream@1.4.10 </tspan>
<tspan x="10" y="474">  │ │ │ ├─┬ readable-stream@1.1.14 </tspan>
<tspan x="10" y="490">  │ │ │ │ ├── core-util-is@1.0.2 </tspan>
<tspan x="10" y="506">  │ │ │ │ ├── isarray@0.0.1 </tspan>
<tspan x="10" y="522">  │ │ │ │ └── string_decoder@0.10.31 </tspan>
<tspan x="10" y="538">  │ │ │ └── typedarray@0.0.6 </tspan>
<tspan x="10" y="554">  │ │ └─┬ meow@2.0.0 </tspan>
<tspan x="10" y="570">  │ │   ├─┬ camelcase-keys@1.0.0 </tspan>
<tspan x="10" y="586">  │ │   │ └── map-obj@1.0.1 </tspan>
<tspan x="10" y="602">  │ │   ├─┬ indent-string@1.2.2 </tspan>
<tspan x="10" y="618">  │ │   │ ├── get-stdin@4.0.1 </tspan>
<tspan x="10" y="634">  │ │   │ └─┬ repeating@1.1.3 </tspan>
<tspan x="10" y="650">  │ │   │   └── is-finite@1.0.2 </tspan>
<tspan x="10" y="666">  │ │   ├── minimist@1.2.0 </tspan>
<tspan x="10" y="682">  │ │   └── object-assign@1.0.0 </tspan>
<tspan x="10" y="698">  │ ├─┬ chrono-node@1.3.1 </tspan>
<tspan x="10" y="714">  │ │ └── moment@2.18.1 </tspan>
<tspan x="10" y="730">  │ ├─┬ jsonwebtoken@7.3.0 </tspan>
<tspan x="10" y="746">  │ │ ├─┬ joi@6.10.1 </tspan>
<tspan x="10" y="762">  │ │ │ ├── isemail@1.2.0 </tspan>
<tspan x="10" y="778">  │ │ │ └── topo@1.1.0 </tspan>
<tspan x="10" y="794">  │ │ ├─┬ jws@3.1.4 </tspan>
<tspan x="10" y="810">  │ │ │ ├── base64url@2.0.0 </tspan>
<tspan x="10" y="826">  │ │ │ └─┬ jwa@1.1.5 </tspan>
<tspan x="10" y="842">  │ │ │   ├── base64url@2.0.0 </tspan>
<tspan x="10" y="858">  │ │ │   ├── buffer-equal-constant-time@1.0.1 </tspan>
<tspan x="10" y="874">  │ │ │   └─┬ ecdsa-sig-formatter@1.0.9 </tspan>
<tspan x="10" y="890">  │ │ │     └── base64url@2.0.0 </tspan>
<tspan x="10" y="906">  │ │ └── lodash.once@4.1.1 </tspan>
<tspan x="10" y="922">  │ ├── rsa-pem-from-mod-exp@0.8.4 </tspan>
<tspan x="10" y="938">  │ ├── sprintf-js@1.0.3 </tspan>
<tspan x="10" y="954">  │ └── url-join@1.1.0 </tspan>
<tspan x="10" y="970">  ├── botkit-studio-sdk@1.0.2 </tspan>
<tspan x="10" y="986">  ├─┬ ciscospark@0.7.87 </tspan>
<tspan x="10" y="1002">  │ ├─┬ @ciscospark/plugin-logger@0.7.87 </tspan>
<tspan x="10" y="1018">  │ │ └─┬ @ciscospark/common@0.7.87 </tspan>
<tspan x="10" y="1034">  │ │   ├─┬ backoff@2.5.0 </tspan>
<tspan x="10" y="1050">  │ │   │ └── precond@0.2.3 </tspan>
<tspan x="10" y="1066">  │ │   ├── core-decorators@0.14.0 </tspan>
<tspan x="10" y="1082">  │ │   └── urlsafe-base64@1.0.0 </tspan>
<tspan x="10" y="1098">  │ ├─┬ @ciscospark/plugin-phone@0.7.87 </tspan>
<tspan x="10" y="1114">  │ │ ├─┬ @ciscospark/plugin-locus@0.7.87 </tspan>
<tspan x="10" y="1130">  │ │ │ └─┬ @ciscospark/plugin-mercury@0.7.87 </tspan>
<tspan x="10" y="1146">  │ │ │   ├── @ciscospark/plugin-feature@0.7.87 </tspan>
<tspan x="10" y="1162">  │ │ │   └── string@3.3.3 </tspan>
<tspan x="10" y="1178">  │ │ ├─┬ @ciscospark/plugin-metrics@0.7.87 </tspan>
<tspan x="10" y="1194">  │ │ │ └─┬ @ciscospark/plugin-wdm@0.7.87 </tspan>
<tspan x="10" y="1210">  │ │ │   └─┬ ampersand-collection@2.0.0 </tspan>
<tspan x="10" y="1226">  │ │ │     └── ampersand-class-extend@2.0.0 </tspan>
<tspan x="10" y="1242">  │ │ ├─┬ ampersand-state@5.0.2 </tspan>
<tspan x="10" y="1258">  │ │ │ ├─┬ ampersand-version@1.0.2 </tspan>
<tspan x="10" y="1274">  │ │ │ │ ├── find-root@0.1.2 </tspan>
<tspan x="10" y="1290">  │ │ │ │ └─┬ through2@0.6.5 </tspan>
<tspan x="10" y="1306">  │ │ │ │   └── readable-stream@1.0.34 </tspan>
<tspan x="10" y="1322">  │ │ │ ├── array-next@0.0.1 </tspan>
<tspan x="10" y="1338">  │ │ │ └── key-tree-store@1.3.0 </tspan>
<tspan x="10" y="1354">  │ │ ├── detectrtc@1.3.4 </tspan>
<tspan x="10" y="1370">  │ │ ├── sdp-transform@2.3.0 </tspan>
<tspan x="10" y="1386">  │ │ └─┬ webrtc-adapter@3.3.2 </tspan>
<tspan x="10" y="1402">  │ │   └── sdp@1.5.0 </tspan>
<tspan x="10" y="1418">  │ ├─┬ @ciscospark/spark-core@0.7.87 </tspan>
<tspan x="10" y="1434">  │ │ ├─┬ @ciscospark/http-core@0.7.87 </tspan>
<tspan x="10" y="1450">  │ │ │ ├── file-type@3.9.0 </tspan>
<tspan x="10" y="1466">  │ │ │ ├─┬ global@4.3.1 </tspan>
<tspan x="10" y="1482">  │ │ │ │ ├─┬ min-document@2.19.0 </tspan>
<tspan x="10" y="1498">  │ │ │ │ │ └── dom-walk@0.1.1 </tspan>
<tspan x="10" y="1514">  │ │ │ │ └── process@0.5.2 </tspan>
<tspan x="10" y="1530">  │ │ │ ├── is-function@1.0.1 </tspan>
<tspan x="10" y="1546">  │ │ │ ├─┬ parse-headers@2.0.1 </tspan>
<tspan x="10" y="1562">  │ │ │ │ ├── for-each@0.3.2 </tspan>
<tspan x="10" y="1578">  │ │ │ │ └── trim@0.0.1 </tspan>
<tspan x="10" y="1594">  │ │ │ └── qs@5.2.1 </tspan>
<tspan x="10" y="1610">  │ │ └── ampersand-events@2.0.2 </tspan>
<tspan x="10" y="1626">  │ ├── @ciscospark/storage-adapter-local-storage@0.7.87 </tspan>
<tspan x="10" y="1642">  │ ├─┬ babel-polyfill@6.23.0 </tspan>
<tspan x="10" y="1658">  │ │ ├── core-js@2.4.1 </tspan>
<tspan x="10" y="1674">  │ │ └── regenerator-runtime@0.10.3 </tspan>
<tspan x="10" y="1690">  │ ├── babel-runtime@6.23.0 </tspan>
<tspan x="10" y="1706">  │ └─┬ envify@3.4.1 </tspan>
<tspan x="10" y="1722">  │   ├─┬ jstransform@11.0.3 </tspan>
<tspan x="10" y="1738">  │   │ ├── base62@1.1.2 </tspan>
<tspan x="10" y="1754">  │   │ ├─┬ commoner@0.10.8 </tspan>
<tspan x="10" y="1770">  │   │ │ ├─┬ detective@4.5.0 </tspan>
<tspan x="10" y="1786">  │   │ │ │ ├── acorn@4.0.11 </tspan>
<tspan x="10" y="1802">  │   │ │ │ └── defined@1.0.0 </tspan>
<tspan x="10" y="1818">  │   │ │ ├─┬ glob@5.0.15 </tspan>
<tspan x="10" y="1834">  │   │ │ │ ├─┬ inflight@1.0.6 </tspan>
<tspan x="10" y="1850">  │   │ │ │ │ └── wrappy@1.0.2 </tspan>
<tspan x="10" y="1866">  │   │ │ │ ├─┬ minimatch@3.0.3 </tspan>
<tspan x="10" y="1882">  │   │ │ │ │ └─┬ brace-expansion@1.1.7 </tspan>
<tspan x="10" y="1898">  │   │ │ │ │   ├── balanced-match@0.4.2 </tspan>
<tspan x="10" y="1914">  │   │ │ │ │   └── concat-map@0.0.1 </tspan>
<tspan x="10" y="1930">  │   │ │ │ ├── once@1.4.0 </tspan>
<tspan x="10" y="1946">  │   │ │ │ └── path-is-absolute@1.0.1 </tspan>
<tspan x="10" y="1962">  │   │ │ ├── graceful-fs@4.1.11 </tspan>
<tspan x="10" y="1978">  │   │ │ ├── private@0.1.7 </tspan>
<tspan x="10" y="1994">  │   │ │ ├── q@1.5.0 </tspan>
<tspan x="10" y="2010">  │   │ │ └─┬ recast@0.11.23 </tspan>
<tspan x="10" y="2026">  │   │ │   ├── ast-types@0.9.6 </tspan>
<tspan x="10" y="2042">  │   │ │   ├── esprima@3.1.3 </tspan>
<tspan x="10" y="2058">  │   │ │   └── source-map@0.5.6 </tspan>
<tspan x="10" y="2074">  │   │ ├── esprima-fb@15001.1.0-dev-harmony-fb </tspan>
<tspan x="10" y="2090">  │   │ ├── object-assign@2.1.1 </tspan>
<tspan x="10" y="2106">  │   │ └─┬ source-map@0.4.4 </tspan>
<tspan x="10" y="2122">  │   │   └── amdefine@1.0.1 </tspan>
<tspan x="10" y="2138">  │   └── through@2.3.8 </tspan>
<tspan x="10" y="2154">  ├── clone@2.0.0 </tspan>
<tspan x="10" y="2170">  ├─┬ command-line-args@3.0.5 </tspan>
<tspan x="10" y="2186">  │ ├── array-back@1.0.4 </tspan>
<tspan x="10" y="2202">  │ ├── feature-detect-es6@1.3.1 </tspan>
<tspan x="10" y="2218">  │ ├─┬ find-replace@1.0.3 </tspan>
<tspan x="10" y="2234">  │ │ └── test-value@2.1.0 </tspan>
<tspan x="10" y="2250">  │ └── typical@2.6.0 </tspan>
<tspan x="10" y="2266">  ├── crypto@0.0.3 </tspan>
<tspan x="10" y="2282">  ├─┬ express@4.15.2 </tspan>
<tspan x="10" y="2298">  │ ├─┬ accepts@1.3.3 </tspan>
<tspan x="10" y="2314">  │ │ └── negotiator@0.6.1 </tspan>
<tspan x="10" y="2330">  │ ├── array-flatten@1.1.1 </tspan>
<tspan x="10" y="2346">  │ ├── content-disposition@0.5.2 </tspan>
<tspan x="10" y="2362">  │ ├── cookie@0.3.1 </tspan>
<tspan x="10" y="2378">  │ ├── cookie-signature@1.0.6 </tspan>
<tspan x="10" y="2394">  │ ├── encodeurl@1.0.1 </tspan>
<tspan x="10" y="2410">  │ ├── escape-html@1.0.3 </tspan>
<tspan x="10" y="2426">  │ ├── etag@1.8.0 </tspan>
<tspan x="10" y="2442">  │ ├─┬ finalhandler@1.0.1 </tspan>
<tspan x="10" y="2458">  │ │ └── debug@2.6.3 </tspan>
<tspan x="10" y="2474">  │ ├── fresh@0.5.0 </tspan>
<tspan x="10" y="2490">  │ ├── merge-descriptors@1.0.1 </tspan>
<tspan x="10" y="2506">  │ ├── methods@1.1.2 </tspan>
<tspan x="10" y="2522">  │ ├── parseurl@1.3.1 </tspan>
<tspan x="10" y="2538">  │ ├── path-to-regexp@0.1.7 </tspan>
<tspan x="10" y="2554">  │ ├─┬ proxy-addr@1.1.4 </tspan>
<tspan x="10" y="2570">  │ │ ├── forwarded@0.1.0 </tspan>
<tspan x="10" y="2586">  │ │ └── ipaddr.js@1.3.0 </tspan>
<tspan x="10" y="2602">  │ ├── range-parser@1.2.0 </tspan>
<tspan x="10" y="2618">  │ ├─┬ send@0.15.1 </tspan>
<tspan x="10" y="2634">  │ │ ├── destroy@1.0.4 </tspan>
<tspan x="10" y="2650">  │ │ └── mime@1.3.4 </tspan>
<tspan x="10" y="2666">  │ ├── serve-static@1.12.1 </tspan>
<tspan x="10" y="2682">  │ ├── setprototypeof@1.0.3 </tspan>
<tspan x="10" y="2698">  │ ├── statuses@1.3.1 </tspan>
<tspan x="10" y="2714">  │ ├── utils-merge@1.0.0 </tspan>
<tspan x="10" y="2730">  │ └── vary@1.1.1 </tspan>
<tspan x="10" y="2746">  ├─┬ https-proxy-agent@1.0.0 </tspan>
<tspan x="10" y="2762">  │ ├─┬ agent-base@2.0.1 </tspan>
<tspan x="10" y="2778">  │ │ └── semver@5.0.3 </tspan>
<tspan x="10" y="2794">  │ └── extend@3.0.0 </tspan>
<tspan x="10" y="2810">  ├─┬ jfs@0.2.6 </tspan>
<tspan x="10" y="2826">  │ ├── async@1.2.1 </tspan>
<tspan x="10" y="2842">  │ ├── clone@1.0.2 </tspan>
<tspan x="10" y="2858">  │ ├─┬ mkdirp@0.5.1 </tspan>
<tspan x="10" y="2874">  │ │ └── minimist@0.0.8 </tspan>
<tspan x="10" y="2890">  │ └── node-uuid@1.4.8 </tspan>
<tspan x="10" y="2906">  ├─┬ localtunnel@1.8.2 </tspan>
<tspan x="10" y="2922">  │ ├─┬ debug@2.2.0 </tspan>
<tspan x="10" y="2938">  │ │ └── ms@0.7.1 </tspan>
<tspan x="10" y="2954">  │ ├── openurl@1.1.0 </tspan>
<tspan x="10" y="2970">  │ ├─┬ request@2.78.0 </tspan>
<tspan x="10" y="2986">  │ │ ├── caseless@0.11.0 </tspan>
<tspan x="10" y="3002">  │ │ ├─┬ har-validator@2.0.6 </tspan>
<tspan x="10" y="3018">  │ │ │ ├─┬ chalk@1.1.3 </tspan>
<tspan x="10" y="3034">  │ │ │ │ ├── ansi-styles@2.2.1 </tspan>
<tspan x="10" y="3050">  │ │ │ │ ├── escape-string-regexp@1.0.5 </tspan>
<tspan x="10" y="3066">  │ │ │ │ ├── has-ansi@2.0.0 </tspan>
<tspan x="10" y="3082">  │ │ │ │ └── supports-color@2.0.0 </tspan>
<tspan x="10" y="3098">  │ │ │ ├─┬ commander@2.9.0 </tspan>
<tspan x="10" y="3114">  │ │ │ │ └── graceful-readlink@1.0.1 </tspan>
<tspan x="10" y="3130">  │ │ │ ├─┬ is-my-json-valid@2.16.0 </tspan>
<tspan x="10" y="3146">  │ │ │ │ ├── generate-function@2.0.0 </tspan>
<tspan x="10" y="3162">  │ │ │ │ ├─┬ generate-object-property@1.2.0 </tspan>
<tspan x="10" y="3178">  │ │ │ │ │ └── is-property@1.0.2 </tspan>
<tspan x="10" y="3194">  │ │ │ │ └── jsonpointer@4.0.1 </tspan>
<tspan x="10" y="3210">  │ │ │ └─┬ pinkie-promise@2.0.1 </tspan>
<tspan x="10" y="3226">  │ │ │   └── pinkie@2.0.4 </tspan>
<tspan x="10" y="3242">  │ │ ├── node-uuid@1.4.8 </tspan>
<tspan x="10" y="3258">  │ │ ├── qs@6.3.2 </tspan>
<tspan x="10" y="3274">  │ │ └── tunnel-agent@0.4.3 </tspan>
<tspan x="10" y="3290">  │ └─┬ yargs@3.29.0 </tspan>
<tspan x="10" y="3306">  │   ├── camelcase@1.2.1 </tspan>
<tspan x="10" y="3322">  │   ├─┬ cliui@3.2.0 </tspan>
<tspan x="10" y="3338">  │   │ ├─┬ string-width@1.0.2 </tspan>
<tspan x="10" y="3354">  │   │ │ ├── code-point-at@1.1.0 </tspan>
<tspan x="10" y="3370">  │   │ │ └─┬ is-fullwidth-code-point@1.0.0 </tspan>
<tspan x="10" y="3386">  │   │ │   └── number-is-nan@1.0.1 </tspan>
<tspan x="10" y="3402">  │   │ ├─┬ strip-ansi@3.0.1 </tspan>
<tspan x="10" y="3418">  │   │ │ └── ansi-regex@2.1.1 </tspan>
<tspan x="10" y="3434">  │   │ └── wrap-ansi@2.1.0 </tspan>
<tspan x="10" y="3450">  │   ├── decamelize@1.2.0 </tspan>
<tspan x="10" y="3466">  │   ├─┬ os-locale@1.4.0 </tspan>
<tspan x="10" y="3482">  │   │ └─┬ lcid@1.0.0 </tspan>
<tspan x="10" y="3498">  │   │   └── invert-kv@1.0.0 </tspan>
<tspan x="10" y="3514">  │   ├── window-size@0.1.4 </tspan>
<tspan x="10" y="3530">  │   └── y18n@3.2.1 </tspan>
<tspan x="10" y="3546">  ├─┬ md5@2.2.1 </tspan>
<tspan x="10" y="3562">  │ ├── charenc@0.0.2 </tspan>
<tspan x="10" y="3578">  │ ├── crypt@0.0.2 </tspan>
<tspan x="10" y="3594">  │ └── is-buffer@1.1.5 </tspan>
<tspan x="10" y="3610">  ├── mustache@2.3.0 </tspan>
<tspan x="10" y="3626">  ├─┬ promise@7.1.1 </tspan>
<tspan x="10" y="3642">  │ └── asap@2.0.5 </tspan>
<tspan x="10" y="3658">  ├─┬ randomstring@1.1.5 </tspan>
<tspan x="10" y="3674">  │ └── array-uniq@1.0.2 </tspan>
<tspan x="10" y="3690">  ├─┬ request@2.81.0 </tspan>
<tspan x="10" y="3706">  │ ├── aws-sign2@0.6.0 </tspan>
<tspan x="10" y="3722">  │ ├── aws4@1.6.0 </tspan>
<tspan x="10" y="3738">  │ ├── caseless@0.12.0 </tspan>
<tspan x="10" y="3754">  │ ├─┬ combined-stream@1.0.5 </tspan>
<tspan x="10" y="3770">  │ │ └── delayed-stream@1.0.0 </tspan>
<tspan x="10" y="3786">  │ ├── forever-agent@0.6.1 </tspan>
<tspan x="10" y="3802">  │ ├─┬ form-data@2.1.4 </tspan>
<tspan x="10" y="3818">  │ │ └── asynckit@0.4.0 </tspan>
<tspan x="10" y="3834">  │ ├─┬ har-validator@4.2.1 </tspan>
<tspan x="10" y="3850">  │ │ ├─┬ ajv@4.11.7 </tspan>
<tspan x="10" y="3866">  │ │ │ ├── co@4.6.0 </tspan>
<tspan x="10" y="3882">  │ │ │ └─┬ json-stable-stringify@1.0.1 </tspan>
<tspan x="10" y="3898">  │ │ │   └── jsonify@0.0.0 </tspan>
<tspan x="10" y="3914">  │ │ └── har-schema@1.0.5 </tspan>
<tspan x="10" y="3930">  │ ├─┬ hawk@3.1.3 </tspan>
<tspan x="10" y="3946">  │ │ ├── boom@2.10.1 </tspan>
<tspan x="10" y="3962">  │ │ ├── cryptiles@2.0.5 </tspan>
<tspan x="10" y="3978">  │ │ ├── hoek@2.16.3 </tspan>
<tspan x="10" y="3994">  │ │ └── sntp@1.0.9 </tspan>
<tspan x="10" y="4010">  │ ├─┬ http-signature@1.1.1 </tspan>
<tspan x="10" y="4026">  │ │ ├── assert-plus@0.2.0 </tspan>
<tspan x="10" y="4042">  │ │ ├─┬ jsprim@1.4.0 </tspan>
<tspan x="10" y="4058">  │ │ │ ├── assert-plus@1.0.0 </tspan>
<tspan x="10" y="4074">  │ │ │ ├── extsprintf@1.0.2 </tspan>
<tspan x="10" y="4090">  │ │ │ ├── json-schema@0.2.3 </tspan>
<tspan x="10" y="4106">  │ │ │ └── verror@1.3.6 </tspan>
<tspan x="10" y="4122">  │ │ └─┬ sshpk@1.13.0 </tspan>
<tspan x="10" y="4138">  │ │   ├── asn1@0.2.3 </tspan>
<tspan x="10" y="4154">  │ │   ├── assert-plus@1.0.0 </tspan>
<tspan x="10" y="4170">  │ │   ├── bcrypt-pbkdf@1.0.1 </tspan>
<tspan x="10" y="4186">  │ │   ├─┬ dashdash@1.14.1 </tspan>
<tspan x="10" y="4202">  │ │   │ └── assert-plus@1.0.0 </tspan>
<tspan x="10" y="4218">  │ │   ├── ecc-jsbn@0.1.1 </tspan>
<tspan x="10" y="4234">  │ │   ├─┬ getpass@0.1.6 </tspan>
<tspan x="10" y="4250">  │ │   │ └── assert-plus@1.0.0 </tspan>
<tspan x="10" y="4266">  │ │   ├── jodid25519@1.0.2 </tspan>
<tspan x="10" y="4282">  │ │   ├── jsbn@0.1.1 </tspan>
<tspan x="10" y="4298">  │ │   └── tweetnacl@0.14.5 </tspan>
<tspan x="10" y="4314">  │ ├── is-typedarray@1.0.0 </tspan>
<tspan x="10" y="4330">  │ ├── isstream@0.1.2 </tspan>
<tspan x="10" y="4346">  │ ├── json-stringify-safe@5.0.1 </tspan>
<tspan x="10" y="4362">  │ ├─┬ mime-types@2.1.15 </tspan>
<tspan x="10" y="4378">  │ │ └── mime-db@1.27.0 </tspan>
<tspan x="10" y="4394">  │ ├── oauth-sign@0.8.2 </tspan>
<tspan x="10" y="4410">  │ ├── performance-now@0.2.0 </tspan>
<tspan x="10" y="4426">  │ ├── safe-buffer@5.0.1 </tspan>
<tspan x="10" y="4442">  │ ├── stringstream@0.0.5 </tspan>
<tspan x="10" y="4458">  │ ├─┬ tough-cookie@2.3.2 </tspan>
<tspan x="10" y="4474">  │ │ └── punycode@1.4.1 </tspan>
<tspan x="10" y="4490">  │ ├── tunnel-agent@0.6.0 </tspan>
<tspan x="10" y="4506">  │ └── uuid@3.0.1 </tspan>
<tspan x="10" y="4522">  ├─┬ twilio@2.11.1 </tspan>
<tspan x="10" y="4538">  │ ├── deprecate@0.1.0 </tspan>
<tspan x="10" y="4554">  │ ├── jsonwebtoken@5.4.1 </tspan>
<tspan x="10" y="4570">  │ ├── q@0.9.7 </tspan>
<tspan x="10" y="4586">  │ ├─┬ request@2.74.0 </tspan>
<tspan x="10" y="4602">  │ │ ├─┬ bl@1.1.2 </tspan>
<tspan x="10" y="4618">  │ │ │ └─┬ readable-stream@2.0.6 </tspan>
<tspan x="10" y="4634">  │ │ │   ├── isarray@1.0.0 </tspan>
<tspan x="10" y="4650">  │ │ │   ├── process-nextick-args@1.0.7 </tspan>
<tspan x="10" y="4666">  │ │ │   └── util-deprecate@1.0.2 </tspan>
<tspan x="10" y="4682">  │ │ ├── caseless@0.11.0 </tspan>
<tspan x="10" y="4698">  │ │ ├── form-data@1.0.1 </tspan>
<tspan x="10" y="4714">  │ │ ├── har-validator@2.0.6 </tspan>
<tspan x="10" y="4730">  │ │ ├── node-uuid@1.4.8 </tspan>
<tspan x="10" y="4746">  │ │ ├── qs@6.2.3 </tspan>
<tspan x="10" y="4762">  │ │ └── tunnel-agent@0.4.3 </tspan>
<tspan x="10" y="4778">  │ ├── scmp@0.0.3 </tspan>
<tspan x="10" y="4794">  │ ├── string.prototype.startswith@0.2.0 </tspan>
<tspan x="10" y="4810">  │ └── underscore@1.8.3 </tspan>
<tspan x="10" y="4826">  ├─┬ url@0.11.0 </tspan>
<tspan x="10" y="4842">  │ ├── punycode@1.3.2 </tspan>
<tspan x="10" y="4858">  │ └── querystring@0.2.0 </tspan>
<tspan x="10" y="4874">  ├─┬ ware@1.3.0 </tspan>
<tspan x="10" y="4890">  │ └─┬ wrap-fn@0.1.5 </tspan>
<tspan x="10" y="4906">  │   └── co@3.1.0 </tspan>
<tspan x="10" y="4922">  └─┬ ws@1.1.4 </tspan>
<tspan x="10" y="4938">    ├── options@0.0.6 </tspan>
<tspan x="10" y="4954">    └── ultron@1.0.2</tspan>
</text>
</svg>
